<svg width="361" height="361" viewBox="0 0 361 361" fill="none" xmlns="http://www.w3.org/2000/svg">
<path d="M182.243 0.951288C178.3 0.926315 173.793 0.947967 172.228 0.99991C170.664 1.05219 168.558 1.1554 167.547 1.23138C166.537 1.30613 165.176 1.42132 164.525 1.48542C163.873 1.54951 162.433 1.711 161.325 1.84279C160.216 1.97581 158.804 2.16212 158.184 2.25829C157.565 2.35451 156.258 2.56931 155.28 2.73551C154.302 2.90166 152.463 3.25191 151.191 3.51427C149.921 3.77545 147.756 4.27523 146.383 4.62424C145.009 4.97326 143.119 5.48135 142.18 5.75321C141.241 6.02505 139.565 6.54269 138.455 6.90358C137.344 7.26564 135.582 7.86867 134.539 8.24619C133.496 8.62251 131.843 9.25172 130.865 9.64347C129.887 10.0364 128.523 10.5991 127.834 10.8947C127.144 11.1915 125.83 11.7815 124.913 12.2065C123.995 12.6315 122.426 13.39 121.425 13.8909C120.424 14.3919 118.673 15.3119 117.531 15.9352C116.391 16.5596 114.524 17.628 113.383 18.3119C112.243 18.9945 110.082 20.3693 108.583 21.3652C107.084 22.3612 105.11 23.7228 104.198 24.3912C103.285 25.0596 101.819 26.1742 100.938 26.8665C100.059 27.5598 98.5395 28.7943 97.5628 29.6123C96.5862 30.429 95.1461 31.6815 94.3627 32.396C93.5793 33.1095 92.1641 34.4438 91.2197 35.3603C90.2751 36.2767 88.7332 37.8295 87.7946 38.81C86.8559 39.7917 85.315 41.475 84.3695 42.5531C83.4248 43.6299 81.8389 45.527 80.8471 46.7675C79.8539 48.008 78.3808 49.9312 77.5735 51.0411C76.7664 52.1511 75.5682 53.8605 74.9105 54.8399C74.2527 55.8193 73.2607 57.3412 72.7072 58.2232C72.1525 59.104 71.221 60.6532 70.6356 61.6659C70.0501 62.6773 69.2216 64.1469 68.7949 64.9304C68.3683 65.7139 67.5315 67.3308 66.9354 68.5238C66.3404 69.7169 65.4847 71.507 65.0354 72.5007C64.5862 73.4955 63.8632 75.1635 63.4283 76.2081C62.9933 77.2528 62.3426 78.8815 61.9823 79.829C61.6232 80.7751 60.8836 82.8859 60.3408 84.5181C59.7979 86.1505 59.0786 88.4476 58.742 89.6228C58.4065 90.7981 57.872 92.8281 57.5556 94.134C57.2403 95.4398 56.7887 97.4427 56.554 98.5858C56.3194 99.7278 55.9472 101.758 55.7268 103.097C55.5075 104.435 55.2349 106.211 55.1223 107.042L54.9173 108.552L55.1034 109.297C55.2053 109.707 55.319 110.123 55.3558 110.22C55.402 110.343 55.1946 110.549 54.685 110.883C54.2784 111.151 53.386 111.813 52.7009 112.354C52.0171 112.897 50.5972 114.2 49.5471 115.252C48.497 116.304 47.2003 117.72 46.6646 118.399C46.1289 119.078 45.3194 120.186 44.8667 120.863C44.4139 121.538 43.6803 122.726 43.2359 123.504C42.7902 124.282 42.1312 125.577 41.7697 126.383C41.4095 127.189 40.9247 128.356 40.6936 128.977C40.4637 129.596 40.0856 130.731 39.8533 131.497C39.6222 132.263 39.2891 133.583 39.1137 134.431L38.7961 135.972L26.9926 136.012L15.1892 136.052L14.0396 136.314C13.4079 136.459 12.4206 136.743 11.8469 136.946C11.2733 137.148 10.382 137.527 9.86635 137.787C9.3508 138.045 8.71078 138.399 8.44411 138.571C8.17744 138.743 7.55992 139.185 7.07046 139.552C6.58215 139.92 5.70153 140.725 5.11481 141.341C4.52813 141.956 3.74711 142.913 3.37975 143.465C3.01234 144.017 2.4849 144.922 2.20757 145.478C1.93025 146.034 1.54741 146.941 1.35542 147.495C1.16341 148.048 0.890838 149.01 0.749775 149.632L0.500366 150.759V191.359L0.815614 192.677C0.988674 193.401 1.34781 194.55 1.6133 195.229C1.87877 195.908 2.34574 196.891 2.65034 197.414C2.95376 197.936 3.50012 198.763 3.86279 199.254C4.22548 199.743 4.98162 200.598 5.54337 201.153C6.10515 201.708 6.98697 202.464 7.50252 202.833C8.01929 203.201 8.94846 203.773 9.56718 204.103C10.1871 204.433 11.2537 204.889 11.9375 205.116C12.6226 205.344 13.5826 205.624 14.0708 205.739L14.9598 205.949L27.1033 206.015L39.2457 206.08L39.3975 206.852C39.4804 207.275 39.6618 208.104 39.7993 208.692C39.9367 209.279 40.2639 210.427 40.527 211.244C40.7889 212.06 41.2061 213.235 41.4538 213.856C41.7015 214.476 42.1258 215.46 42.3949 216.041C42.6651 216.623 43.2375 217.718 43.6666 218.475C44.0956 219.231 44.8079 220.391 45.25 221.05C45.6921 221.71 46.4886 222.796 47.0195 223.465C47.5505 224.133 48.4133 225.142 48.9373 225.708C49.4599 226.273 50.3998 227.21 51.0267 227.788C51.6525 228.366 52.5995 229.185 53.1293 229.607L54.0929 230.375L54.17 235.678C54.2127 238.596 54.3016 241.863 54.3667 242.941C54.4331 244.017 54.5682 245.807 54.6678 246.918C54.7673 248.028 54.9819 249.978 55.1442 251.251C55.3066 252.523 55.5756 254.393 55.7415 255.406C55.9063 256.418 56.2547 258.314 56.5131 259.62C56.7726 260.926 57.274 263.169 57.626 264.606C57.978 266.042 58.6133 268.393 59.0376 269.829C59.4607 271.266 60.1351 273.401 60.5369 274.576C60.9375 275.75 61.6143 277.619 62.0409 278.731C62.4676 279.842 63.2024 281.659 63.6753 282.769C64.147 283.879 65.0181 285.819 65.6095 287.08C66.2021 288.341 67.2012 290.344 67.8318 291.531C68.4623 292.72 69.4057 294.438 69.9283 295.353C70.451 296.267 71.3565 297.789 71.942 298.736C72.5263 299.682 73.7115 301.506 74.5755 302.787C75.4395 304.067 76.7751 305.965 77.5432 307.001C78.3123 308.038 79.5723 309.671 80.3427 310.631C81.113 311.59 82.3101 313.033 83.0024 313.836C83.6957 314.639 85.1583 316.263 86.2533 317.444C87.3484 318.625 89.2223 320.529 90.4182 321.676C91.6129 322.822 93.1775 324.282 93.8944 324.921C94.6114 325.559 95.9981 326.748 96.9759 327.562C97.9537 328.376 99.3936 329.535 100.176 330.137C100.958 330.74 103.572 332.692 105.983 334.475C108.396 336.258 111.011 338.18 111.796 338.746C112.581 339.311 114.022 340.307 114.996 340.959C115.971 341.611 117.543 342.628 118.487 343.219C119.432 343.81 121.219 344.868 122.458 345.57C123.696 346.271 125.83 347.415 127.199 348.113C128.568 348.81 130.675 349.826 131.88 350.371C133.087 350.916 135.167 351.802 136.503 352.341C137.839 352.881 139.759 353.616 140.769 353.975C141.78 354.334 143.434 354.898 144.443 355.228C145.454 355.558 147.134 356.072 148.177 356.372C149.22 356.67 151.141 357.179 152.446 357.501C153.751 357.824 155.59 358.246 156.535 358.44C157.478 358.634 158.998 358.926 159.91 359.091C160.823 359.255 162.29 359.497 163.17 359.63C164.05 359.762 165.65 359.977 166.725 360.108C167.801 360.237 169.641 360.425 170.814 360.523C171.988 360.622 174.068 360.756 175.437 360.822C176.805 360.887 179.152 360.942 180.651 360.941C182.151 360.941 184.525 360.887 185.926 360.822C187.328 360.757 189.701 360.595 191.2 360.461C192.699 360.328 194.913 360.086 196.118 359.925C197.325 359.762 199.25 359.472 200.397 359.279C201.544 359.087 203.411 358.736 204.545 358.504C205.679 358.27 207.567 357.844 208.741 357.556C209.914 357.269 211.834 356.762 213.007 356.429C214.181 356.096 216.127 355.499 217.333 355.104C218.54 354.707 220.433 354.048 221.541 353.64C222.649 353.232 224.279 352.602 225.162 352.242C226.045 351.882 227.591 351.223 228.599 350.779C229.606 350.335 231.583 349.4 232.992 348.701C234.402 348.003 236.45 346.94 237.545 346.338C238.64 345.736 240.341 344.761 241.323 344.171C242.307 343.58 243.858 342.615 244.771 342.026C245.683 341.437 247.124 340.473 247.971 339.885C248.818 339.296 251.726 337.183 254.43 335.188C257.135 333.194 260.096 330.981 261.008 330.27C261.921 329.56 263.439 328.33 264.381 327.538C265.325 326.748 266.684 325.568 267.403 324.918C268.123 324.269 269.459 323.02 270.371 322.145C271.284 321.269 272.853 319.69 273.857 318.637C274.862 317.583 276.456 315.839 277.4 314.762C278.345 313.684 279.847 311.89 280.739 310.773C281.63 309.657 283 307.869 283.784 306.796C284.566 305.726 285.764 304.021 286.443 303.01C287.124 301.997 288.164 300.394 288.757 299.448C289.348 298.501 290.356 296.819 290.994 295.709C291.635 294.599 292.866 292.302 293.732 290.604C294.598 288.906 295.714 286.609 296.213 285.499C296.712 284.389 297.564 282.385 298.106 281.048C298.646 279.708 299.422 277.679 299.83 276.536C300.238 275.393 300.828 273.643 301.143 272.646C301.457 271.649 301.927 270.1 302.184 269.203C302.442 268.307 302.92 266.505 303.246 265.199C303.573 263.893 304.058 261.756 304.324 260.451C304.592 259.145 304.992 256.982 305.212 255.643C305.434 254.304 305.749 252.06 305.915 250.657C306.08 249.252 306.299 247.043 306.402 245.745C306.504 244.449 306.638 241.885 306.7 240.047C306.76 238.211 306.812 235.389 306.813 233.777L306.815 230.846L307.971 229.922C308.606 229.415 309.955 228.17 310.968 227.156C311.98 226.141 313.213 224.803 313.706 224.184C314.199 223.563 315.005 222.467 315.498 221.749C315.991 221.029 316.671 219.961 317.01 219.374C317.349 218.787 317.907 217.746 318.25 217.061C318.594 216.375 319.172 215.066 319.535 214.152C319.897 213.238 320.378 211.875 320.605 211.125C320.83 210.374 321.158 209.092 321.333 208.276C321.508 207.459 321.67 206.728 321.694 206.65C321.726 206.542 324.105 206.496 331.728 206.46C340.056 206.42 341.877 206.381 342.668 206.23C343.189 206.131 344.147 205.908 344.795 205.734C345.443 205.561 346.457 205.228 347.047 204.996C347.637 204.763 348.574 204.33 349.127 204.033C349.682 203.736 350.535 203.226 351.023 202.897C351.513 202.568 352.287 201.995 352.743 201.623C353.201 201.25 354.028 200.469 354.583 199.886C355.136 199.303 355.886 198.429 356.25 197.942C356.613 197.455 357.169 196.63 357.484 196.108C357.799 195.585 358.255 194.727 358.5 194.2C358.743 193.673 359.111 192.765 359.317 192.182C359.524 191.599 359.799 190.675 359.928 190.129C360.058 189.583 360.241 188.568 360.332 187.874C360.469 186.84 360.5 183.823 360.5 171.237C360.5 158.651 360.469 155.635 360.332 154.601C360.241 153.906 360.058 152.891 359.928 152.345C359.799 151.799 359.524 150.875 359.317 150.293C359.111 149.71 358.743 148.801 358.5 148.274C358.255 147.747 357.799 146.889 357.484 146.367C357.169 145.844 356.613 145.019 356.25 144.533C355.886 144.046 355.136 143.171 354.583 142.588C354.028 142.005 353.201 141.224 352.743 140.851C352.287 140.48 351.513 139.906 351.023 139.577C350.535 139.249 349.682 138.738 349.127 138.441C348.573 138.145 347.637 137.711 347.047 137.479C346.457 137.246 345.443 136.914 344.795 136.74C344.147 136.567 343.189 136.344 342.668 136.244C341.877 136.093 340.057 136.054 331.728 136.015C324.105 135.978 321.726 135.933 321.694 135.825C321.67 135.746 321.508 135.014 321.333 134.199C321.158 133.382 320.829 132.1 320.602 131.349C320.375 130.599 320 129.476 319.769 128.856C319.538 128.236 319.09 127.153 318.775 126.45C318.458 125.747 317.9 124.625 317.534 123.957C317.168 123.289 316.371 121.995 315.763 121.081C315.157 120.167 314.188 118.831 313.612 118.113C313.037 117.395 311.845 116.085 310.964 115.204C310.084 114.322 308.815 113.16 308.144 112.621C307.473 112.082 306.507 111.348 305.997 110.991L305.072 110.342L305.287 109.716C305.407 109.372 305.505 108.804 305.508 108.454C305.509 108.104 305.323 106.565 305.093 105.036C304.862 103.506 304.486 101.282 304.256 100.093C304.026 98.9037 303.63 97.0233 303.376 95.9132C303.121 94.8032 302.674 92.9869 302.382 91.877C302.091 90.767 301.585 88.9768 301.259 87.9C300.932 86.8233 300.283 84.8195 299.819 83.4483C299.353 82.0772 298.475 79.6994 297.867 78.1655C297.259 76.6305 296.432 74.6277 296.031 73.7137C295.629 72.7996 294.615 70.6627 293.776 68.9651C292.938 67.2675 291.761 64.9965 291.162 63.9197C290.562 62.8418 289.59 61.1596 289.003 60.1802C288.414 59.2008 287.321 57.464 286.574 56.3219C285.829 55.1787 284.787 53.6295 284.262 52.8792C283.736 52.1277 282.746 50.766 282.061 49.852C281.377 48.938 280.283 47.5218 279.629 46.7062C278.976 45.8894 277.825 44.503 277.072 43.6243C276.32 42.7446 275.095 41.3556 274.352 40.5377C273.609 39.7186 271.821 37.8736 270.38 36.4374C268.938 35.001 266.986 33.1347 266.042 32.2918C265.098 31.4477 263.553 30.1109 262.607 29.3216C261.662 28.5322 260.195 27.3463 259.348 26.6862C258.5 26.0261 257.087 24.96 256.207 24.3166C255.326 23.6732 253.48 22.3911 252.101 21.4687C250.724 20.5451 248.431 19.092 247.005 18.2408C245.58 17.3896 243.561 16.2299 242.518 15.6635C241.475 15.0972 239.594 14.1309 238.337 13.5136C237.081 12.8974 235.268 12.0403 234.308 11.6093C233.348 11.1784 231.469 10.383 230.132 9.84161C228.797 9.30028 226.716 8.50134 225.51 8.06557C224.305 7.62989 222.197 6.92592 220.828 6.5021C219.459 6.0783 217.486 5.50015 216.443 5.21878C215.4 4.93624 213.881 4.54448 213.065 4.34623C212.251 4.14798 210.703 3.79778 209.628 3.56747C208.553 3.33597 206.58 2.95966 205.243 2.73053C203.907 2.50024 201.827 2.18089 200.621 2.02061C199.415 1.85912 197.602 1.64427 196.591 1.54217C195.581 1.44011 193.554 1.2751 192.087 1.17656C190.351 1.05903 186.92 0.979495 182.25 0.948646L182.243 0.951288ZM182.303 9.49867C186.214 9.52481 190.241 9.59957 191.251 9.66608C192.262 9.73134 193.995 9.8691 195.103 9.97117C196.211 10.0732 197.945 10.2608 198.955 10.3891C199.966 10.5172 201.76 10.7808 202.943 10.9743C204.125 11.1678 206.044 11.518 207.21 11.7531C208.373 11.9881 210.285 12.4143 211.459 12.7004C212.632 12.9877 214.552 13.4934 215.725 13.8258C216.899 14.1594 219.032 14.823 220.466 15.3014C221.9 15.781 223.874 16.4767 224.851 16.8483C225.829 17.2199 227.63 17.9476 228.851 18.4652C230.073 18.9816 232.099 19.8909 233.352 20.4844C234.604 21.0792 236.191 21.8615 236.878 22.2248C237.564 22.5869 238.9 23.3122 239.844 23.8358C240.79 24.3593 242.444 25.3209 243.518 25.9726C244.593 26.6243 246.568 27.891 247.904 28.7873C249.241 29.6848 251.214 31.0738 252.289 31.8752C253.364 32.6765 254.912 33.8709 255.726 34.5287C256.542 35.1863 257.822 36.2524 258.571 36.8993C259.32 37.5451 260.761 38.8344 261.771 39.7639C262.782 40.6946 264.542 42.4113 265.682 43.5782C266.823 44.7463 268.397 46.4225 269.182 47.3033C269.965 48.1842 271.25 49.6789 272.036 50.626C272.821 51.5722 274.132 53.2283 274.946 54.3062C275.762 55.3829 276.99 57.0662 277.676 58.0457C278.362 59.0251 279.284 60.3866 279.727 61.0728C280.17 61.7578 280.877 62.8797 281.3 63.5646C281.723 64.2495 282.567 65.6764 283.176 66.7366C283.786 67.7967 284.814 69.6938 285.464 70.9522C286.113 72.2106 287.028 74.0685 287.495 75.0812C287.963 76.0926 288.666 77.6692 289.057 78.5833C289.448 79.4974 290.168 81.2863 290.654 82.5603C291.141 83.8329 291.902 85.9697 292.346 87.3088C292.791 88.6467 293.457 90.8073 293.827 92.1084C294.196 93.4095 294.712 95.3588 294.973 96.4414C295.234 97.5229 295.683 99.5956 295.972 101.047C296.261 102.498 296.497 103.741 296.497 103.808C296.497 103.89 259.364 103.929 180.466 103.929C96.847 103.929 64.4357 103.893 64.4357 103.799C64.4357 103.728 64.7001 102.352 65.0236 100.742C65.346 99.1326 65.9019 96.6657 66.2574 95.2626C66.613 93.8594 67.2565 91.5443 67.688 90.1199C68.1194 88.6953 68.8708 86.4125 69.359 85.0485C69.8462 83.6833 70.5858 81.7245 71.0006 80.6941C71.4154 79.6637 72.0613 78.1265 72.4347 77.2776C72.8092 76.4288 73.5784 74.7727 74.145 73.5962C74.7127 72.4197 75.6478 70.5773 76.225 69.5005C76.8021 68.4238 77.7255 66.7677 78.2777 65.8216C78.83 64.8742 79.841 63.2181 80.5249 62.1415C81.2075 61.0636 82.305 59.4075 82.9628 58.4614C83.6194 57.514 84.6933 56.0218 85.3463 55.1434C86.0005 54.2649 87.1135 52.8224 87.8211 51.9381C88.5286 51.0537 89.9615 49.3513 91.0056 48.1559C92.0498 46.9605 93.8655 44.9969 95.0413 43.7919C96.217 42.5869 98.0386 40.8051 99.0887 39.8328C100.14 38.8605 101.825 37.3635 102.836 36.5064C103.847 35.6481 105.447 34.3412 106.392 33.6003C107.337 32.8607 108.897 31.6854 109.861 30.991C110.823 30.2966 112.396 29.2044 113.357 28.5634C114.317 27.9224 115.935 26.8859 116.952 26.2591C117.969 25.6323 119.729 24.6007 120.863 23.9645C121.997 23.3293 124.179 22.1826 125.711 21.4168C127.243 20.6511 129.372 19.6407 130.442 19.1719C131.512 18.703 133.166 18.0086 134.116 17.6287C135.067 17.2476 136.806 16.5887 137.983 16.1626C139.159 15.7364 141 15.1131 142.072 14.7759C143.145 14.44 144.662 13.9841 145.444 13.7633C146.226 13.5437 147.933 13.0962 149.237 12.7709C150.541 12.4456 152.701 11.9636 154.037 11.6989C155.374 11.4354 157.106 11.1148 157.889 10.9854C158.671 10.8572 159.898 10.6696 160.615 10.5687C161.332 10.469 162.906 10.2802 164.111 10.1508C165.318 10.0215 167.051 9.85523 167.963 9.78044C168.876 9.70686 170.876 9.60355 172.408 9.55014C173.94 9.4967 178.391 9.47253 182.303 9.49867ZM181.058 112.522L286.719 112.537L287.963 112.747C288.648 112.862 289.982 113.147 290.926 113.379C291.872 113.613 293.211 114.012 293.904 114.267C294.597 114.521 295.687 114.974 296.329 115.272C296.97 115.57 298.003 116.112 298.626 116.475C299.248 116.84 300.236 117.473 300.823 117.881C301.41 118.289 302.397 119.05 303.016 119.57C303.635 120.091 304.597 120.991 305.151 121.571C305.707 122.15 306.526 123.078 306.972 123.633C307.417 124.186 308.172 125.228 308.649 125.948C309.125 126.666 309.809 127.815 310.168 128.501C310.529 129.186 311.062 130.335 311.355 131.054C311.646 131.772 312.072 132.975 312.298 133.725C312.524 134.475 312.823 135.64 312.962 136.312C313.101 136.985 313.294 138.239 313.392 139.101C313.548 140.47 313.566 144.634 313.534 171.773L313.496 202.876L313.29 204.063C313.176 204.716 312.95 205.81 312.786 206.497C312.621 207.182 312.389 208.064 312.268 208.455C312.147 208.848 311.85 209.703 311.607 210.355C311.365 211.008 310.827 212.214 310.411 213.034C309.996 213.855 309.366 214.991 309.009 215.559C308.653 216.127 307.974 217.108 307.5 217.74C307.026 218.372 305.97 219.58 305.153 220.424C304.336 221.269 303.134 222.39 302.482 222.916C301.83 223.442 300.789 224.205 300.17 224.612C299.55 225.019 298.506 225.64 297.848 225.994C297.19 226.347 296.151 226.854 295.537 227.121C294.924 227.387 294.023 227.748 293.534 227.923C293.045 228.098 291.951 228.418 291.104 228.637C290.256 228.854 288.95 229.129 288.2 229.249L286.837 229.468H220.705L218.986 229.148C218.042 228.973 216.624 228.643 215.838 228.416C215.053 228.188 213.905 227.804 213.29 227.562C212.675 227.321 211.478 226.778 210.631 226.356C209.783 225.934 208.424 225.144 207.608 224.599C206.794 224.055 205.676 223.247 205.128 222.803C204.578 222.359 203.579 221.444 202.907 220.768C202.236 220.092 201.334 219.102 200.903 218.567C200.472 218.033 196.396 212.009 191.845 205.181C185.798 196.108 183.422 192.634 183.015 192.274C182.708 192.005 182.156 191.669 181.789 191.53C181.322 191.352 180.845 191.275 180.216 191.273C179.493 191.271 179.179 191.331 178.647 191.575C178.281 191.743 177.787 192.029 177.549 192.21C177.249 192.439 174.557 196.382 168.846 204.949C164.299 211.774 160.216 217.807 159.775 218.355C159.333 218.903 158.515 219.831 157.957 220.419C157.397 221.008 156.408 221.937 155.756 222.486C155.104 223.033 153.857 223.961 152.986 224.547C152.115 225.132 150.647 225.981 149.727 226.433C148.806 226.884 147.54 227.442 146.913 227.674C146.287 227.904 145.3 228.232 144.72 228.4C144.141 228.568 143.027 228.835 142.244 228.991C141.462 229.148 140.304 229.333 139.671 229.402C138.894 229.487 128.222 229.527 106.763 229.527C78.6534 229.527 74.8389 229.506 73.5441 229.342C72.7394 229.238 71.4688 229.02 70.7185 228.855C69.9695 228.689 68.7155 228.343 67.9333 228.087C67.1511 227.83 65.9517 227.37 65.2666 227.064C64.5827 226.758 63.4888 226.218 62.8369 225.866C62.185 225.512 61.1456 224.876 60.5258 224.451C59.9071 224.026 59.0265 223.38 58.5701 223.017C58.1138 222.652 57.1087 221.738 56.3359 220.984C55.5643 220.23 54.5414 219.133 54.0651 218.546C53.5886 217.958 52.7981 216.878 52.3097 216.146C51.8214 215.412 51.0937 214.17 50.6943 213.384C50.2937 212.598 49.7367 211.381 49.4558 210.68C49.1749 209.978 48.8051 208.924 48.6332 208.337C48.4626 207.749 48.2172 206.813 48.0868 206.259C47.9577 205.703 47.7574 204.716 47.6436 204.063L47.4374 202.876L47.3995 171.773C47.3676 144.635 47.3845 140.47 47.5418 139.101C47.6402 138.239 47.8333 136.984 47.972 136.311C48.1106 135.639 48.4093 134.475 48.6357 133.725C48.8621 132.974 49.2876 131.772 49.5791 131.053C49.8719 130.335 50.4052 129.186 50.7643 128.501C51.1235 127.815 51.8642 126.586 52.4118 125.771C52.9593 124.954 53.8542 123.752 54.4005 123.1C54.9481 122.447 55.8773 121.453 56.4652 120.893C57.0542 120.331 57.9289 119.554 58.4089 119.164C58.8889 118.775 59.7079 118.16 60.2294 117.795C60.7509 117.432 61.7109 116.827 62.3627 116.45C63.0145 116.073 64.0018 115.553 64.5554 115.294C65.11 115.035 66.1234 114.613 66.8072 114.355C67.4922 114.098 68.745 113.707 69.5924 113.486C70.4398 113.267 71.6404 112.999 72.2591 112.893C72.8789 112.786 73.839 112.655 74.3924 112.602C74.9471 112.549 122.948 112.513 181.06 112.521L181.058 112.522ZM27.4122 144.538L38.3326 144.528L38.4049 148.95C38.4452 151.382 38.5306 161.225 38.5945 170.823C38.6597 180.421 38.7451 190.344 38.7854 192.875L38.8577 197.475H27.564C17.5609 197.475 16.1825 197.454 15.4925 197.283C15.0647 197.177 14.3416 196.918 13.8853 196.707C13.429 196.495 12.7274 196.079 12.3268 195.78C11.9262 195.482 11.3289 194.914 11.0006 194.519C10.6723 194.124 10.2184 193.465 9.99199 193.055C9.76561 192.646 9.45507 191.937 9.30337 191.48L9.02195 190.668L8.99005 171.403C8.96279 154.61 8.98175 152.034 9.13699 151.285C9.23539 150.813 9.50087 150.036 9.72605 149.562C9.95125 149.087 10.2925 148.471 10.4834 148.193C10.6753 147.915 11.1577 147.366 11.5572 146.975C11.9554 146.583 12.6108 146.063 13.0126 145.818C13.4144 145.574 14.0402 145.262 14.404 145.124C14.7691 144.986 15.3866 144.803 15.7777 144.717C16.3371 144.593 18.8165 144.558 27.408 144.551L27.4122 144.538ZM330.898 144.528C338.054 144.529 339.897 144.561 340.767 144.702C341.356 144.799 342.25 145.011 342.756 145.177C343.261 145.342 344.006 145.644 344.411 145.848C344.818 146.052 345.522 146.466 345.976 146.768C346.43 147.071 347.232 147.745 347.76 148.267C348.286 148.79 349.023 149.681 349.399 150.247C349.773 150.815 350.26 151.696 350.481 152.206C350.701 152.717 350.992 153.562 351.126 154.084C351.261 154.607 351.423 155.541 351.487 156.162C351.558 156.836 351.606 162.778 351.607 170.942C351.608 179.267 351.562 185.089 351.488 185.863C351.423 186.561 351.234 187.602 351.069 188.178C350.904 188.753 350.534 189.709 350.248 190.303C349.961 190.895 349.412 191.803 349.028 192.321C348.645 192.837 347.959 193.609 347.506 194.035C347.052 194.461 346.3 195.065 345.834 195.376C345.368 195.687 344.586 196.126 344.096 196.351C343.608 196.578 342.711 196.908 342.105 197.085L341.001 197.407L331.55 197.445L322.098 197.484V144.526L330.898 144.528ZM180.466 203.168C180.51 203.168 183.4 207.455 186.886 212.695C190.375 217.935 193.671 222.782 194.212 223.468C194.754 224.153 196.082 225.602 197.165 226.685C198.248 227.769 199.64 229.057 200.259 229.547C200.879 230.036 201.973 230.838 202.689 231.33C203.406 231.821 204.578 232.561 205.293 232.971C206.007 233.382 207.196 234.007 207.933 234.357C208.669 234.708 209.871 235.227 210.604 235.51C211.335 235.793 212.573 236.215 213.356 236.447C214.138 236.68 215.365 237.004 216.082 237.168C216.799 237.331 218.132 237.586 219.045 237.735L220.704 238.006L253.594 238.045C277.309 238.074 286.896 238.047 287.965 237.95C288.78 237.876 290.06 237.714 290.809 237.587C291.56 237.461 292.84 237.192 293.654 236.99C294.469 236.788 295.749 236.419 296.498 236.168C297.249 235.918 297.96 235.674 298.08 235.628L298.299 235.543L298.224 237.964C298.183 239.295 298.096 241.347 298.032 242.522C297.967 243.697 297.807 245.753 297.675 247.092C297.544 248.431 297.304 250.46 297.142 251.604C296.981 252.746 296.686 254.589 296.488 255.699C296.289 256.809 295.915 258.679 295.657 259.854C295.4 261.029 294.974 262.818 294.712 263.831C294.45 264.844 293.967 266.576 293.637 267.682C293.308 268.787 292.692 270.711 292.27 271.956C291.848 273.2 291.057 275.34 290.513 276.711C289.969 278.082 289.17 280.006 288.737 280.985C288.303 281.964 287.422 283.834 286.779 285.14C286.134 286.446 285.027 288.555 284.318 289.829C283.608 291.102 282.555 292.918 281.975 293.865C281.395 294.811 280.331 296.467 279.611 297.545C278.889 298.622 277.74 300.272 277.058 301.212C276.375 302.151 275.129 303.78 274.29 304.833C273.45 305.885 272.284 307.306 271.697 307.992C271.11 308.677 269.87 310.066 268.941 311.079C268.012 312.09 266.325 313.828 265.193 314.938C264.062 316.049 262.415 317.6 261.535 318.385C260.654 319.169 259.295 320.345 258.512 320.996C257.73 321.648 256.504 322.637 255.786 323.195C255.069 323.752 252.163 325.919 249.327 328.01C246.491 330.102 243.478 332.297 242.631 332.888C241.783 333.479 240.339 334.444 239.419 335.033C238.5 335.621 236.847 336.633 235.745 337.282C234.644 337.931 232.809 338.959 231.668 339.568C230.527 340.178 228.874 341.02 227.993 341.441C227.113 341.862 225.487 342.607 224.379 343.099C223.27 343.59 221.51 344.327 220.467 344.737C219.424 345.148 217.647 345.81 216.516 346.209C215.386 346.609 213.332 347.277 211.953 347.694C210.573 348.112 208.355 348.727 207.021 349.062C205.688 349.395 203.555 349.883 202.28 350.145C201.006 350.407 199.003 350.776 197.83 350.966C196.657 351.156 194.817 351.42 193.741 351.555C192.666 351.69 190.906 351.876 189.83 351.97C188.755 352.064 186.594 352.205 185.03 352.282C183.243 352.371 180.754 352.396 178.333 352.349C176.215 352.307 173.788 352.22 172.941 352.156C172.093 352.091 170.52 351.953 169.444 351.849C168.369 351.745 166.396 351.506 165.059 351.317C163.723 351.128 161.731 350.809 160.633 350.608C159.537 350.406 157.67 350.029 156.485 349.769C155.301 349.509 153.72 349.135 152.97 348.938C152.221 348.741 150.967 348.399 150.185 348.178C149.403 347.957 148.176 347.591 147.459 347.364C146.742 347.136 145.169 346.605 143.962 346.183C142.757 345.76 141.157 345.175 140.407 344.882C139.658 344.588 138.35 344.054 137.503 343.694C136.656 343.335 135.269 342.721 134.421 342.33C133.574 341.94 131.974 341.165 130.866 340.608C129.758 340.052 127.973 339.105 126.899 338.505C125.826 337.905 124.199 336.956 123.284 336.396C122.37 335.836 120.795 334.831 119.784 334.165C118.773 333.499 117.36 332.531 116.643 332.012C115.926 331.494 113.766 329.842 111.843 328.341C109.921 326.841 107.573 325.029 106.629 324.316C105.684 323.602 104.351 322.566 103.665 322.013C102.98 321.459 101.862 320.525 101.177 319.938C100.492 319.349 99.3727 318.357 98.6878 317.734C98.0027 317.111 96.7298 315.906 95.8587 315.057C94.9864 314.207 93.5202 312.711 92.5994 311.731C91.6785 310.752 90.2813 309.202 89.4943 308.288C88.7073 307.375 87.4012 305.793 86.5906 304.772C85.7799 303.752 84.5579 302.149 83.8753 301.21C83.1926 300.273 81.9885 298.537 81.1993 297.354C80.41 296.173 79.1762 294.223 78.4557 293.021C77.7363 291.821 76.5984 289.823 75.9264 288.583C75.2556 287.342 74.2577 285.392 73.7078 284.25C73.1591 283.106 72.3626 281.371 71.9372 280.391C71.5129 279.412 70.7757 277.622 70.3004 276.414C69.824 275.206 69.0536 273.096 68.5866 271.725C68.1208 270.354 67.4524 268.237 67.1004 267.021C66.7484 265.804 66.2482 263.961 65.9898 262.925C65.7303 261.889 65.3285 260.151 65.0962 259.062C64.8639 257.974 64.4894 255.997 64.2654 254.67C64.0414 253.342 63.7214 251.162 63.5554 249.823C63.3896 248.483 63.1714 246.4 63.0718 245.193C62.9723 243.984 62.8336 241.35 62.7637 239.336C62.6937 237.324 62.6582 235.656 62.6843 235.629C62.7104 235.603 63.3693 235.799 64.1468 236.065C64.9254 236.331 66.2554 236.725 67.1027 236.942C67.9501 237.159 69.2834 237.444 70.0657 237.576C70.848 237.708 72.1552 237.876 72.9695 237.95C74.0397 238.047 83.5914 238.073 107.34 238.045L140.23 238.006L141.89 237.735C142.802 237.585 144.121 237.335 144.822 237.177C145.521 237.019 146.667 236.724 147.37 236.519C148.072 236.315 149.285 235.906 150.067 235.61C150.85 235.315 152.19 234.739 153.045 234.332C153.901 233.923 155.127 233.281 155.771 232.902C156.416 232.524 157.481 231.853 158.139 231.411C158.798 230.971 159.891 230.171 160.569 229.634C161.247 229.097 162.686 227.77 163.77 226.687C164.852 225.601 166.181 224.153 166.722 223.468C167.264 222.782 170.56 217.935 174.048 212.695C177.535 207.455 180.424 203.168 180.468 203.168H180.466Z" fill="#56CCFA"/>
</svg>
